<svg xmlns="http://www.w3.org/2000/svg" width="32.374" height="32.374" viewBox="0 0 32.374 32.374"><path d="M28.574.278a.948.948,0,0,0-1.341,0l-7.31,7.31H3.346A2.849,2.849,0,0,0,.5,10.433V23.712a2.849,2.849,0,0,0,2.845,2.845H4.358v4.869a.949.949,0,0,0,1.626.663L11.4,26.557H22.442a2.849,2.849,0,0,0,2.845-2.845V12.953l7.31-7.31a.949.949,0,0,0,0-1.341ZM19.855,15.7,17.172,13.02,25.22,4.973,27.9,7.655Zm-3.693-1.01,2.021,2.021-3.464,1.443Zm7.229,9.019a.95.95,0,0,1-.948.948H11a.949.949,0,0,0-.678.285L6.255,29.1V25.608a.949.949,0,0,0-.948-.948H3.346a.95.95,0,0,1-.948-.948V10.433a.95.95,0,0,1,.948-.948H18.025L15.16,12.35a.969.969,0,0,0-.209.317l-2.625,6.3H7.2a.948.948,0,1,0,0,1.9h5.754a.959.959,0,0,0,.373-.076l6.878-2.865a.963.963,0,0,0,.317-.209l2.865-2.865Zm5.853-17.4L26.561,3.631,27.9,2.29l2.683,2.683Zm0,0" transform="translate(-0.501)" fill="#8a8a8a"/></svg>