<svg xmlns="http://www.w3.org/2000/svg" width="17.542" height="32.384" viewBox="0 0 17.542 32.384"><path d="M130.152,5.4H134.2a.675.675,0,0,0,.675-.675V.675A.675.675,0,0,0,134.2,0h-4.048a7.429,7.429,0,0,0-7.421,7.421v4.723h-4.723a.675.675,0,0,0-.675.675v4.048a.675.675,0,0,0,.675.675h4.723V31.71a.675.675,0,0,0,.675.675h4.048a.675.675,0,0,0,.675-.675V17.542h4.723a.675.675,0,0,0,.64-.461l1.349-4.048a.675.675,0,0,0-.64-.888h-6.072V7.421A2.024,2.024,0,0,1,130.152,5.4Z" transform="translate(-117.333)" fill="#fff"/></svg>