<svg xmlns="http://www.w3.org/2000/svg" width="32.734" height="28.773" viewBox="0 0 32.734 28.773"><path d="M15.881,28.64a.959.959,0,0,0,.972,0C23.425,24.775,33.089,16.6,32.725,8.863,32.5,4.078,28.805.036,24.108,0c-3.5-.027-6.119,2.1-7.74,5.18C14.738,2.081,12.113-.027,8.627,0,3.931.036.236,4.077.011,8.863-.354,16.589,9.321,24.782,15.881,28.64ZM1.927,8.954c.185-3.917,3.135-7.008,6.716-7.036h.052c3.641,0,6,3.336,6.749,6.01a.959.959,0,0,0,1.85,0c.016-.06,1.706-6.009,6.75-6.009h.05c3.581.028,6.531,3.119,6.716,7.036.377,7.981-11.83,16.093-14.441,17.734C13.755,25.048,1.55,16.942,1.927,8.954Zm0,0" transform="translate(-0.001 0.001)" fill="#8a8a8a"/></svg>