<svg xmlns="http://www.w3.org/2000/svg" width="32.736" height="32.736" viewBox="0 0 32.736 32.736"><g transform="translate(0 0)"><g transform="translate(22.89 8.888)"><path d="M359.091,139.188a.639.639,0,1,0,.187.452A.644.644,0,0,0,359.091,139.188Z" transform="translate(-358 -139.001)" fill="#68d1cb"/></g><g transform="translate(3.836 18.031)"><path d="M65.754,282H60.639a.639.639,0,0,0-.639.639v5.115a.639.639,0,0,0,.639.639h5.115a.639.639,0,0,0,.639-.639V282.64A.639.639,0,0,0,65.754,282Zm-.639,5.115H61.279V283.28h3.836Z" transform="translate(-60 -282.001)" fill="#68d1cb"/></g><g transform="translate(13.363 13.363)"><path d="M227.979,209.049a.639.639,0,0,0-.7.139l-6.515,6.515h0l-7.595,7.595h0l-3.983,3.983a.639.639,0,0,0,.452,1.091h18.094a.639.639,0,0,0,.639-.639V209.64A.639.639,0,0,0,227.979,209.049Zm-.884,18.046H211.183l2.44-2.44.61.61a.639.639,0,1,0,.9-.9l-.61-.61,1.628-1.628.61.61a.639.639,0,0,0,.9-.9l-.61-.61,1.628-1.628.61.61a.639.639,0,1,0,.9-.9l-.61-.61,1.628-1.628.61.61a.639.639,0,0,0,.9-.9l-.61-.61,1.628-1.628.61.61a.639.639,0,1,0,.9-.9l-.61-.61,2.44-2.44Z" transform="translate(-209 -209)" fill="#68d1cb"/></g><g transform="translate(21.081 21.081)"><path d="M337.774,329.76a.639.639,0,0,0-.7.139l-7.18,7.18a.639.639,0,0,0,.452,1.091h7.18a.639.639,0,0,0,.639-.639v-7.18A.639.639,0,0,0,337.774,329.76Zm-.884,7.131h-5l5-5Z" transform="translate(-329.711 -329.711)" fill="#68d1cb"/></g><g transform="translate(0 0)"><g transform="translate(0 0)"><path d="M29.607,9.544a.639.639,0,0,0-.672-.148l-4.366,1.6a.64.64,0,0,0-.232.148L23.11,12.37,15.094,4.354a.639.639,0,0,0-.9,0L4.541,14H2.183L14.642,1.544l6.837,6.837a.639.639,0,0,0,.9-.9L15.094.188a.639.639,0,0,0-.9,0l-14,14A.639.639,0,0,0,.64,15.281h.639V32.1a.639.639,0,0,0,.639.639H12.084a.639.639,0,1,0,0-1.279H2.558V15.281H4.806a.64.64,0,0,0,.452-.187l9.384-9.384,7.563,7.564-9.482,9.482V17.008H17.2a.639.639,0,1,0,0-1.279H12.084a.639.639,0,0,0-.639.639v7.417a.637.637,0,0,0,.037.212l-.573.573a2.6,2.6,0,0,0,3.671,3.671l5.392-5.392a.639.639,0,0,0-.9-.9l-4.085,4.085L13.12,24.168,24.8,12.486l1.863,1.863L22.2,18.813a.639.639,0,0,0,.9.9l4.9-4.9a.64.64,0,0,0,.148-.232l1.6-4.366A.639.639,0,0,0,29.607,9.544ZM14.079,26.935l-.4.4a1.317,1.317,0,0,1-1.863-1.863l.4-.4ZM27.307,13.182l-1.339-1.339,2.112-.774Z" transform="translate(0 0)" fill="#68d1cb"/></g></g><g transform="translate(20.436 20.203)"><path d="M320.711,316.158a.64.64,0,1,0,.187.452A.644.644,0,0,0,320.711,316.158Z" transform="translate(-319.62 -315.971)" fill="#68d1cb"/></g><g transform="translate(12.212 9.655)"><path d="M193.43,151a2.43,2.43,0,1,0,2.43,2.43A2.432,2.432,0,0,0,193.43,151Zm0,3.581a1.151,1.151,0,1,1,1.151-1.151A1.152,1.152,0,0,1,193.43,154.582Z" transform="translate(-191 -151.001)" fill="#68d1cb"/></g></g></svg>