<svg xmlns="http://www.w3.org/2000/svg" width="55" height="55" viewBox="0 0 55 55"><path d="M736.083,4786.67h-2.75v-28.42a.908.908,0,0,0-.765-.9l-21.235-3.541v-13.89a.917.917,0,0,0-.917-.92H686.583a.917.917,0,0,0-.917.92v46.75h-2.749a.914.914,0,0,0-.917.91v5.5a.917.917,0,0,0,.917.92h53.167a.917.917,0,0,0,.916-.92v-5.5a.915.915,0,0,0-.917-.911Zm-4.583-27.64v27.64H711.333v-31Zm-44-18.2h22v45.84h-22Zm47.667,51.34H683.833v-3.67h51.334Zm-38.5-47.67h-5.5a.916.916,0,0,0-.916.92v5.5a.915.915,0,0,0,.916.91h5.5a.915.915,0,0,0,.916-.911v-5.5a.917.917,0,0,0-.916-.919Zm-.917,5.5h-3.667v-3.67h3.667V4750Zm10.083-5.5h-5.5a.917.917,0,0,0-.918.92v5.5a.916.916,0,0,0,.918.91h5.5a.915.915,0,0,0,.917-.911v-5.5A.918.918,0,0,0,705.833,4744.5Zm-.917,5.5H701.25v-3.67h3.666V4750Zm-8.249,3.67h-5.5a.914.914,0,0,0-.916.91v5.5a.917.917,0,0,0,.916.92h5.5a.917.917,0,0,0,.916-.92v-5.5a.915.915,0,0,0-.916-.91Zm-.917,5.5h-3.667v-3.67h3.667Zm10.083-5.5h-5.5a.915.915,0,0,0-.918.91v5.5a.918.918,0,0,0,.918.92h5.5a.918.918,0,0,0,.917-.92v-5.5a.915.915,0,0,0-.917-.91Zm-.917,5.5H701.25v-3.67h3.666Zm-8.249,3.66h-5.5a.917.917,0,0,0-.916.92v5.5a.917.917,0,0,0,.916.92h5.5a.917.917,0,0,0,.916-.92v-5.5a.917.917,0,0,0-.916-.92Zm-.917,5.5h-3.667v-3.66h3.667Zm10.083-5.5h-5.5a.918.918,0,0,0-.918.92v5.5a.918.918,0,0,0,.918.919h5.5a.919.919,0,0,0,.917-.92v-5.5A.918.918,0,0,0,705.833,4762.83Zm-.917,5.5H701.25v-3.66h3.666Zm-8.249,3.67h-5.5a.917.917,0,0,0-.916.92v5.5a.915.915,0,0,0,.916.91h5.5a.915.915,0,0,0,.916-.911v-5.5a.917.917,0,0,0-.916-.92Zm-.917,5.5h-3.667v-3.67h3.667Zm10.083-5.5h-5.5a.918.918,0,0,0-.918.92v5.5a.916.916,0,0,0,.918.911h5.5a.915.915,0,0,0,.917-.911v-5.5A.918.918,0,0,0,705.833,4772Zm-.917,5.5H701.25v-3.67h3.666Zm9.168-7.33h5.5a.919.919,0,0,0,.917-.92v-5.5a.918.918,0,0,0-.917-.92h-5.5a.917.917,0,0,0-.917.92v5.5a.917.917,0,0,0,.917.92Zm.916-5.5h3.666v3.66H715v-3.66Zm8.25,5.5h5.5a.919.919,0,0,0,.917-.92v-5.5a.918.918,0,0,0-.917-.92h-5.5a.918.918,0,0,0-.917.92v5.5a.918.918,0,0,0,.917.92Zm.916-5.5h3.667v3.66h-3.667Zm-10.082,14.66h5.5a.915.915,0,0,0,.917-.911v-5.5a.918.918,0,0,0-.917-.92h-5.5a.917.917,0,0,0-.917.92v5.5a.915.915,0,0,0,.917.91Zm.916-5.5h3.666v3.67H715v-3.67Zm8.25,5.5h5.5a.915.915,0,0,0,.917-.911v-5.5a.918.918,0,0,0-.917-.92h-5.5a.918.918,0,0,0-.917.92v5.5a.915.915,0,0,0,.917.91Zm.916-5.5h3.667v3.67h-3.667Z" transform="translate(-682 -4739)" fill="#0e1a29" fill-rule="evenodd"/></svg>