<svg xmlns="http://www.w3.org/2000/svg" width="55" height="54.999" viewBox="0 0 55 54.999"><path d="M1017.83,4766.5a.919.919,0,0,0,.92-.92v-12.83h7.33a.918.918,0,0,0,.92-.92v-3.66a.3.3,0,0,0-.02-.1,1.174,1.174,0,0,0-.04-.2c-.02-.049-.04-.089-.06-.129a.826.826,0,0,0-.37-.37.357.357,0,0,0-.14-.06c-.03-.01-.05-.03-.08-.04l-34.831-8.25a1.43,1.43,0,0,0-.209-.02h-3.667a.864.864,0,0,0-.316.06l-.071.03c-.024.01-.043.02-.063.03l-14.666,8.25a.731.731,0,0,0-.127.1c-.03.02-.059.049-.086.069a.925.925,0,0,0-.183.27v.01a.938.938,0,0,0-.065.32c0,.01-.006.02-.006.03v3.66a.917.917,0,0,0,.917.919H985.75v17.04l-3.4,3.4a.9.9,0,0,0-.269.64v14.67H980.25v5.5h18.333v-5.5H996.75v-14.67a.9.9,0,0,0-.269-.64l-3.4-3.4v-17.04h18.337v12.83a.915.915,0,0,0,.91.92h1.84v2.75a.915.915,0,0,0,.91.92,1.83,1.83,0,1,1-1.83,1.83v-.92h-1.83V4772a3.639,3.639,0,0,0,1.91,3.2l-6.88,6.879h-2.37a.915.915,0,0,0-.91.92v8.25a.915.915,0,0,0,.91.92h22a.918.918,0,0,0,.92-.92V4783a.918.918,0,0,0-.92-.921h-2.37l-6.88-6.88a3.652,3.652,0,0,0-.83-6.75V4766.5h1.83Zm.92-17.42h6.42v1.84h-6.42v-1.84Zm6.42,34.84v6.41H1005v-6.41Zm-4.05-1.84h-12.07l6.03-6.03Zm-4.2-21.08h-3.67v-8.25h3.67Zm0-10.08h-3.67v-1.84h3.67Zm-28.42-10.09h1.833v6.42H988.5v-6.42Zm-.917,8.25h3.667v1.46l-.379.38h-3.288v-1.84Zm3.667,4.05v6.57l-3.287-3.28Zm-3.667-.38h1.454l-1.454,1.45Zm0,5.88,3.288,3.29-3.288,3.28Zm3.667,5.5v6.57l-3.287-3.28Zm-3.667,6.04v-.54l3.288,3.29-3.288,3.28Zm3.667,4.96v6.57l-3.287-3.28Zm-3.667,5.5,3.288,3.29-3.288,3.28Zm3.667,5.5v2.37h-2.37Zm-4.583-44.65v5.77H976.416Zm-12.834,9.44v-1.84H985.75v1.84H973.833Zm10.084,23.29,1.833-1.83v16.12h-1.833Zm12.833,16.12v1.84H982.083v-1.84H996.75Zm-1.833-16.12v14.29h-1.834v-16.12Zm16.5-23.29H993.083v-1.84h18.337v1.84Zm-19.253-3.67v-6.17l26.073,6.17h-26.07Zm21.083,17.42v-1.84h3.67v1.84Z" transform="translate(-972 -4739)" fill="#0e1a29" fill-rule="evenodd"/></svg>