<svg xmlns="http://www.w3.org/2000/svg" width="58" height="58.007" viewBox="0 0 58 58.007"><path d="M1324.04,4784.33h-21.27v-4.93a22.236,22.236,0,1,0-13.54,0v4.93h-21.27a.969.969,0,0,0-.96.97v7.73a.96.96,0,0,0,.96.96h56.08a.959.959,0,0,0,.96-.959v-7.73A.969.969,0,0,0,1324.04,4784.33Zm-48.34-26.08a20.309,20.309,0,1,1,14.77,19.52,20.309,20.309,0,0,1-14.77-19.52Zm15.47,21.69a.683.683,0,0,1,.15.03c.14.03.27.05.39.07.33.07.65.13.99.18.17.02.34.04.5.07.31.04.6.06.9.1.18.01.36.03.53.04.37.02.74.03,1.12.04.09,0,.17.01.25.01s.17-.01.25-.01c.37,0,.75-.02,1.11-.04.18-.01.36-.03.54-.04.3-.03.59-.06.9-.1.17-.03.34-.04.5-.07q.5-.075.99-.18c.13-.02.26-.04.39-.07.04-.01.1-.02.15-.03v4.39h-9.66v-4.39Zm31.89,12.12h-54.12v-5.8h54.13v5.8Zm-29-30.47a3.861,3.861,0,0,0,5.28-1.42c.83-1.43,2.97-10.029,3.4-11.74a.974.974,0,0,0-.72-1.17.945.945,0,0,0-.89.24c-1.28,1.22-7.66,7.38-8.48,8.81a3.877,3.877,0,0,0,1.41,5.279Zm.26-4.32a71.873,71.873,0,0,1,5.7-6,68.6,68.6,0,0,1-2.34,7.93,1.937,1.937,0,1,1-3.37-1.91c.01,0,.01-.01.01-.02Zm1.68-14.49a.962.962,0,0,0,.96-.97v-1.931a.96.96,0,0,0-1.92,0v1.93a.962.962,0,0,0,.96.97Zm-8.35-.92a.966.966,0,0,0-1.67.97l.96,1.67a.969.969,0,0,0,1.69-.95l-.01-.01Zm-5.4,7.33-1.67-.96a.966.966,0,0,0-.97,1.67l1.68.97a.968.968,0,1,0,.98-1.67.03.03,0,0,0-.02-.01Zm-1.72,9.06a.962.962,0,0,0-.96-.97h-1.94a.965.965,0,1,0,0,1.93h1.94a.96.96,0,0,0,.96-.96Zm.76,7.37-1.68.96a.963.963,0,1,0,.96,1.67h.01l1.67-.96a.961.961,0,1,0-.95-1.67Zm6.98,6.01a.974.974,0,0,0-1.33.35l-.96,1.67a.971.971,0,1,0,1.67.991v-.01l.97-1.68a.967.967,0,0,0-.35-1.321Zm7.73,2.07a.968.968,0,0,0-.96.97v1.93a.96.96,0,0,0,1.92,0v-1.93a.968.968,0,0,0-.96-.97Zm8.35.93a.966.966,0,0,0,1.67-.97l-.96-1.67a.958.958,0,0,0-1.32-.36.947.947,0,0,0-.36,1.311l.01.009Zm5.4-7.34,1.67.96a.963.963,0,0,0,1.32-.359.95.95,0,0,0-.35-1.3l-1.68-.971a.964.964,0,1,0-.98,1.66.031.031,0,0,0,.02.009Zm1.71-9.04a.969.969,0,0,0,.97.96h1.94a.965.965,0,0,0,0-1.931h-1.94a.964.964,0,0,0-.97.97Zm-1.23-7.25a.884.884,0,0,0,.48-.13l1.68-.97a.966.966,0,0,0-.97-1.67l-1.67.96a.971.971,0,0,0,.48,1.811Zm-6.5-6.15a.975.975,0,0,0,1.33-.351l.96-1.669a.966.966,0,0,0-1.67-.97l-.97,1.67a.963.963,0,0,0,.35,1.32Zm-8.21,14.23a.966.966,0,0,0,1.32-.35l.48-.84a.964.964,0,0,0-1.66-.98l-.01.01-.48.83a.967.967,0,0,0,.35,1.331Z" transform="translate(-1267 -4735.984)" fill="#0e1a29" fill-rule="evenodd"/></svg>