<svg xmlns="http://www.w3.org/2000/svg" width="50.008" height="59.06" viewBox="0 0 50.008 59.06"><path d="M402.5,4749.74h.551a12.011,12.011,0,0,0,23.9,0h.549a2.46,2.46,0,1,0,0-4.92h-1.182a12.024,12.024,0,0,0-8.319-7.5v-.37a3,3,0,1,0-6,0v.37a12.024,12.024,0,0,0-8.32,7.5H402.5a2.46,2.46,0,1,0,0,4.92Zm12.5,8.85a9.957,9.957,0,0,1-9.952-8.85h19.9a9.957,9.957,0,0,1-9.948,8.85Zm-1-21.64a1,1,0,0,1,1.712-.68.921.921,0,0,1,.288.68v4.92h-2Zm-2,2.42v3.48a.99.99,0,0,0,1,.98h4a.991.991,0,0,0,1-.98v-3.48a10.039,10.039,0,0,1,6.172,5.45h-18.34A10.034,10.034,0,0,1,412,4739.37Zm-9.5,7.42h25a.49.49,0,1,1,0,.98h-25a.49.49,0,0,1,0-.98Zm30.172,21.94c-.329-.32-.658-.63-1-.92a25.3,25.3,0,0,0-33.339,0A24.407,24.407,0,0,0,390,4786.12v5.9a.993.993,0,0,0,1,.99h48.008a.993.993,0,0,0,1-.991v-5.9a24.248,24.248,0,0,0-7.334-17.39Zm-2.667,7.56h-4v-10.03a23.554,23.554,0,0,1,4,2.72v7.31Zm-21.557-11.84a23.237,23.237,0,0,1,13.12,0,21.514,21.514,0,0,1,2.465.879,1,1,0,0,0-.03.141v10.82H406v-10.82a.771.771,0,0,0-.03-.14,21.851,21.851,0,0,1,2.48-.88ZM400,4776.29v-7.31a23.645,23.645,0,0,1,4-2.72v10.03h-4Zm-8,9.83a22.4,22.4,0,0,1,6-15.22v20.14h-6Zm8,4.92v-12.79h30.006v12.79Zm38.007,0h-6v-20.15a22.267,22.267,0,0,1,6,15.23Z" transform="translate(-390 -4733.95)" fill="#0e1a29" fill-rule="evenodd"/></svg>