<svg xmlns="http://www.w3.org/2000/svg" width="32.11" height="32.116" viewBox="0 0 32.11 32.116"><g transform="translate(-0.449 0)"><path d="M32.477,9.442a11.735,11.735,0,0,0-.746-3.9,8.227,8.227,0,0,0-4.7-4.7A11.765,11.765,0,0,0,23.135.1C21.416.019,20.87,0,16.51,0S11.6.019,9.891.094a11.739,11.739,0,0,0-3.9.746A7.836,7.836,0,0,0,3.146,2.7,7.907,7.907,0,0,0,1.3,5.54a11.767,11.767,0,0,0-.746,3.9c-.082,1.719-.1,2.265-.1,6.625s.019,4.906.094,6.619a11.735,11.735,0,0,0,.747,3.9,8.226,8.226,0,0,0,4.7,4.7,11.767,11.767,0,0,0,3.9.747c1.713.075,2.259.094,6.619.094s4.906-.019,6.619-.094a11.732,11.732,0,0,0,3.9-.747,8.215,8.215,0,0,0,4.7-4.7,11.775,11.775,0,0,0,.746-3.9c.075-1.713.094-2.259.094-6.619s-.006-4.906-.082-6.619ZM29.585,22.555a8.8,8.8,0,0,1-.552,2.98,5.328,5.328,0,0,1-3.049,3.049,8.834,8.834,0,0,1-2.98.552c-1.694.075-2.2.094-6.487.094s-4.8-.019-6.487-.094a8.8,8.8,0,0,1-2.98-.552,4.942,4.942,0,0,1-1.844-1.2,4.993,4.993,0,0,1-1.2-1.844,8.835,8.835,0,0,1-.552-2.98c-.075-1.694-.094-2.2-.094-6.487s.019-4.8.094-6.487a8.8,8.8,0,0,1,.552-2.98,4.881,4.881,0,0,1,1.2-1.845,4.986,4.986,0,0,1,1.844-1.2,8.84,8.84,0,0,1,2.98-.552c1.694-.075,2.2-.094,6.487-.094s4.8.019,6.487.094a8.8,8.8,0,0,1,2.98.552,4.938,4.938,0,0,1,1.844,1.2,4.992,4.992,0,0,1,1.2,1.845,8.839,8.839,0,0,1,.552,2.98c.075,1.694.094,2.2.094,6.487s-.019,4.787-.094,6.481Zm0,0" transform="translate(0 0)" fill="#fff"/><path d="M133.2,124.5a8.25,8.25,0,1,0,8.25,8.25A8.252,8.252,0,0,0,133.2,124.5Zm0,13.6a5.352,5.352,0,1,1,5.352-5.352A5.353,5.353,0,0,1,133.2,138.1Zm0,0" transform="translate(-116.689 -116.689)" fill="#fff"/><path d="M366.3,90.528a1.926,1.926,0,1,1-1.926-1.926A1.926,1.926,0,0,1,366.3,90.528Zm0,0" transform="translate(-339.289 -83.043)" fill="#fff"/></g></svg>