<svg xmlns="http://www.w3.org/2000/svg" width="42.603" height="34.615" viewBox="0 0 42.603 34.615"><g transform="translate(0 -48)"><g transform="translate(0 48)"><path d="M42.6,52.1a18.21,18.21,0,0,1-5.032,1.379,8.685,8.685,0,0,0,3.842-4.827,17.454,17.454,0,0,1-5.538,2.114,8.733,8.733,0,0,0-15.108,5.972,8.993,8.993,0,0,0,.2,1.992,24.721,24.721,0,0,1-18-9.136A8.736,8.736,0,0,0,5.65,61.265,8.625,8.625,0,0,1,1.7,60.19v.1a8.774,8.774,0,0,0,7,8.582,8.717,8.717,0,0,1-2.29.288,7.722,7.722,0,0,1-1.654-.149,8.817,8.817,0,0,0,8.161,6.084A17.549,17.549,0,0,1,2.09,78.815,16.36,16.36,0,0,1,0,78.7a24.588,24.588,0,0,0,13.4,3.919c16.072,0,24.859-13.313,24.859-24.853,0-.386-.013-.759-.032-1.129A17.423,17.423,0,0,0,42.6,52.1Z" transform="translate(0 -48)" fill="#fff"/></g></g></svg>